# AST/ASF file generated using VICON BodyLanguage
# -----------------------------------------------
:version 1.10
:name VICON
:units
  mass 1.0
  length 0.45
  angle deg
:documentation
   .ast/.asf automatically generated from VICON data using
   VICON BodyBuilder and BodyLanguage model FoxedUp or BRILLIANT.MOD
:root
   order TX TY TZ RX RY RZ
   axis XYZ
   position 0 0 0  
   orientation 0 0 0 
:bonedata
  begin
     id 1 
     name lhipjoint
     direction 0.578396 -0.714046 0.394458 
     length 2.21935 
     axis 0 0 0  XYZ
  end
  begin
     id 2 
     name lfemur
     direction 0.34202 -0.939693 0  
     length 6.39105  
     axis 0 0 20  XYZ
    dof rx ry rz
    limits (-160.0 20.0)
           (-70.0 70.0)
           (-60.0 70.0)
  end
  begin
     id 3 
     name ltibia
     direction 0.34202 -0.939693 0   
     length 6.99037   
     axis 0 0 20   XYZ
    dof rx
    limits (-10.0 170.0)
  end
  begin
     id 4 
     name lfoot
     direction 0.0582372 -0.160005 0.985397   
     length 2.06111   
     axis -90 7.62852e-016 20   XYZ
    dof rx rz
    limits (-45.0 90.0)
           (-70.0 20.0)
  end
  begin
     id 5 
     name ltoes
     direction 1.53556e-011 -4.21875e-011 1   
     length 1.04074   
     axis -90 7.62852e-016 20   XYZ
    dof rx
    limits (-90.0 20.0)
  end
  begin
     id 6 
     name rhipjoint
     direction -0.558179 -0.726269 0.40121   
     length 2.182  
     axis 0 0 0  XYZ 
  end
  begin
     id 7 
     name rfemur
     direction -0.34202 -0.939693 0   
     length 6.51172   
     axis 0 0 -20   XYZ
    dof rx ry rz
    limits (-160.0 20.0)
           (-70.0 70.0)
           (-70.0 60.0)
  end
  begin
     id 8 
     name rtibia
     direction -0.34202 -0.939693 0   
     length 7.02607   
     axis 0 0 -20   XYZ
    dof rx
    limits (-10.0 170.0)
 end
 begin
     id 9 
     name rfoot
     direction -0.0788856 -0.216737 0.973038   
     length 1.96734  
     axis -90 -7.62852e-016 -20   XYZ
    dof rx rz
    limits (-45.0 90.0)
           (-20.0 70.0)
  end
  begin
     id 10 
     name rtoes
     direction -1.53567e-011 -4.21783e-011 1   
     length 0.990825   
     axis -90 -7.62852e-016 -20   XYZ
    dof rx
    limits (-90.0 20.0)
  end
  begin
     id 11 
     name lowerback
     direction 0.00668177 0.999323 -0.0361741   
     length 1.7655   
     axis 0 0 0   XYZ
    dof rx ry rz
    limits (-20.0 45.0)
           (-30.0 30.0)
           (-30.0 30.0)
  end
  begin
     id 12 
     name upperback
     direction -0.00222086 0.99851 0.0545167   
     length 1.74912   
     axis 0 0 0   XYZ
    dof rx ry rz
    limits (-20.0 45.0)
           (-30.0 30.0)
           (-30.0 30.0)
  end
  begin
     id 13 
     name thorax
     direction -0.00733971 0.997496 0.0703443   
     length 1.75715   
     axis 0 0 0   XYZ
    dof rx ry rz
    limits (-20.0 45.0)
           (-30.0 30.0)
           (-30.0 30.0)
  end
  begin
     id 14 
     name lowerneck
     direction 0.0279797 0.994795 0.0979765   
     length 1.46939   
     axis 0 0 0   XYZ
    dof rx ry rz
    limits (-20.0 45.0)
           (-30.0 30.0)
           (-30.0 30.0)
  end
  begin
     id 15 
     name upperneck
     direction 0.00339187 0.976776 -0.214238   
     length 1.48018   
     axis 0 0 0   XYZ
    dof rx ry rz
    limits (-20.0 45.0)
           (-30.0 30.0)
           (-30.0 30.0)
  end
  begin
     id 16
     name head
     direction -0.00263506 0.996603 -0.0823096  
     length 1.4976  
     axis 0 0 0   XYZ
    dof rx ry rz
    limits (-20.0 45.0)
           (-30.0 30.0)
           (-30.0 30.0)
  end
  begin
     id 17 
     name lclavicle
     direction 0.894044 0.44508 -0.0508781  
     length 3.03024  
     axis 0 0 0   XYZ
    dof ry rz
    limits (-20.0 10.0)
           (0.0 20.0)
  end
  begin
     id 18 
     name lhumerus
     direction 1 -4.48961e-011 -2.39475e-018   
     length 4.4661   
     axis 180 -30 -90   XYZ
    dof rx ry rz
    limits (-60.0 90.0)
           (-90.0 90.0)
           (-90.0 90.0)
  end
  begin
     id 19
     name lradius
     direction 1 -4.48961e-011 9.29328e-028   
     length 3.41414   
     axis 180 -30 -90   XYZ
    dof rx
    limits (-10.0 170.0)
  end
  begin
     id 20
     name lwrist
     direction 1 -4.48985e-011 1.53461e-026   
     length 1.70707   
     axis -1.09697e-014 90 90   XYZ
    dof ry
    limits (-180.0 0.0)
 end
  begin
     id 21 
     name lhand
     direction 1 -4.48966e-011 3.06923e-026   
     length 0.328298   
     axis -1.95843e-014 90 90   XYZ
    dof rx rz
    limits (-90.0 90.0)
           (-45.0 45.0)
  end
  begin
     id 22 
     name lfingers
     direction 1 -4.48893e-011 6.13845e-026   
     length 0.264682   
     axis -3.91686e-014 90 90   XYZ
    dof rx
    limits (0.0 90.0)
  end
  begin
     id 23
     name lthumb
     direction 0.707107 -6.34876e-011 0.707107   
     length 0.380032   
     axis -90 45 2.85299e-015   XYZ
    dof rx rz
    limits (-45.0 45.0)
           (-45.0 45.0)
  end
  begin
     id 24 
     name rclavicle
     direction -0.936955 0.347862 -0.0332887   
     length 3.26927  
     axis 0 0 0   XYZ 
    dof ry rz
    limits (-10.0 20.0)
           (-20.0 0.0)
  end
  begin
     id 25 
     name rhumerus
     direction -1 -4.4896e-011 1.78637e-018  
     length 4.40431   
     axis 180 30 90   XYZ
    dof rx ry rz
    limits (-90.0 60.0)
           (-90.0 90.0)
           (-90.0 90.0)
  end
  begin
     id 26 
     name rradius
     direction -1 -4.48955e-011 9.34036e-027   
     length 3.04688   
     axis 180 30 90   XYZ
    dof rx
    limits (-10.0 170.0)
  end
  begin
     id 27 
     name rwrist
     direction -1 -4.49011e-011 1.53461e-026   
     length 1.52344   
     axis -1.09697e-014 -90 -90   XYZ
    dof ry
    limits (-180.0 0.0)
  end
  begin
     id 28
     name rhand
     direction -1 -4.48834e-011 3.06923e-026   
     length 0.500489   
     axis -1.95843e-014 -90 -90   XYZ
    dof rx rz
    limits (-90.0 90.0)
           (-45.0 45.0)
  end
  begin
     id 29
     name rfingers
     direction -1 -4.48967e-011 6.13845e-026   
     length 0.403507   
     axis -3.91686e-014 -90 -90   XYZ
    dof rx
    limits (0.0 90.0)
  end
  begin
     id 30
     name rthumb
     direction -0.707107 -6.34826e-011 0.707107   
     length 0.579358   
     axis -90 -45 -2.85299e-015   XYZ
    dof rx rz
    limits (-45.0 45.0)
           (-45.0 45.0)
  end
:hierarchy
  begin
    root lhipjoint rhipjoint lowerback
    lhipjoint lfemur
    lfemur ltibia
    ltibia lfoot
    lfoot ltoes
    rhipjoint rfemur
    rfemur rtibia
    rtibia rfoot
    rfoot rtoes
    lowerback upperback
    upperback thorax
    thorax lowerneck lclavicle rclavicle
    lowerneck upperneck
    upperneck head
    lclavicle lhumerus
    lhumerus lradius
    lradius lwrist
    lwrist lhand lthumb
    lhand lfingers
    rclavicle rhumerus
    rhumerus rradius
    rradius rwrist
    rwrist rhand rthumb
    rhand rfingers
  end

#!OML:ASF H:\IndianDance\Patient Classification 1\Patient 1\Session 1\dancer.ASF
:FULLY-SPECIFIED
:DEGREES
860
root 5.25051 14.4524 8.48988 -358.032 -0.817 1.04577
lowerback 7.28713 6.7225 8.59553
upperback -4.57168 10.2797 4.01859
thorax -8.21792 4.64729 -1.85622
lowerneck -17.8809 -2.56299 -3.38771
upperneck 24.5615 -2.44178 -0.457679
head 10.9358 -1.469 0.0521157
rclavicle -5.64548e-014 -6.20208e-014
rhumerus 29.7745 68.7441 -46.0523
rradius 95.1979
rwrist -13.3026
rhand -58.0364 40.0272
rfingers 7.12502
rthumb -30.2806 12.4911
lclavicle -5.64548e-014 -6.20208e-014
lhumerus 11.5503 6.46579 -3.6341
lradius 25.6574
lwrist 14.4082
lhand 36.1295 36.5842
lfingers 7.12502
lthumb 59.1168 411.259
rfemur -35.9687 -32.4759 8.96055
rtibia 59.279
rfoot -7.10107 -12.4339
rtoes -25.299
lfemur -30.7944 25.5196 -29.149
ltibia 53.6239
lfoot -25.6537 12.0636
ltoes 6.89514
861
root 5.316 14.4453 8.48799 -358.055 -0.721014 0.800059
lowerback 7.36781 6.73432 8.86142
upperback -4.61337 10.3468 4.11813
thorax -8.28285 4.66259 -1.91154
lowerneck -17.8265 -2.52237 -3.39019
upperneck 24.5641 -2.37823 -0.481657
head 10.925 -1.44304 0.0539364
rclavicle -2.54444e-014 -4.45278e-014
rhumerus 29.4317 68.8853 -46.4276
rradius 95.1013
rwrist -13.3556
rhand -58.0161 40.3619
rfingers 7.12502
rthumb -30.2613 12.8222
lclavicle -2.54444e-014 -4.45278e-014
lhumerus 11.3532 5.99329 -3.82584
lradius 25.6917
lwrist 14.9236
lhand 36.0796 36.6178
lfingers 7.12502
lthumb 59.0736 411.335
rfemur -35.1554 -31.4049 8.95877
rtibia 55.3318
rfoot -5.56723 -14.9492
rtoes -29.7477
lfemur -30.7993 25.3556 -29.186
ltibia 53.6364
lfoot -25.7899 12.1313
ltoes 7.45742
862
root 5.38222 14.4495 8.487 -358.055 -0.71292 0.695393
lowerback 7.33837 6.77399 8.95379
upperback -4.60942 10.4085 4.1594
thorax -8.24967 4.69052 -1.91859
lowerneck -17.8263 -2.44352 -3.18848
upperneck 24.5692 -2.2919 -0.607954
head 10.9204 -1.40033 -0.012717
rclavicle -1.15295e-014 4.45278e-014
rhumerus 29.3301 68.9734 -46.6588
rradius 94.9779
rwrist -13.4687
rhand -57.9904 40.1935
rfingers 7.12502
rthumb -30.2368 12.6494
lclavicle -1.15295e-014 4.45278e-014
lhumerus 11.2295 6.05674 -3.8617
lradius 25.6314
lwrist 14.9438
lhand 36.1476 36.7283
lfingers 7.12502
lthumb 59.1323 411.388
rfemur -34.5166 -29.9813 8.57551
rtibia 52.2192
rfoot -5.39295 -16.4962
rtoes -29.4522
lfemur -30.7571 25.2459 -29.3827
ltibia 53.5793
lfoot -25.8395 12.3516
ltoes 7.40487
863
root 5.45203 14.4692 8.47923 -358.075 -0.666841 0.499578
lowerback 7.40668 6.84737 9.15638
upperback -4.63883 10.5449 4.21494
thorax -8.28903 4.74348 -1.99113
lowerneck -17.8117 -2.44512 -3.08662
upperneck 24.617 -2.30288 -0.685924
head 10.9329 -1.40538 -0.059623
rclavicle 1.82882e-014 -3.18055e-014
rhumerus 28.8493 69.0142 -47.1166
rradius 94.8526
rwrist -13.5224
rhand -58.0531 39.992
rfingers 7.12502
rthumb -30.2965 12.4588
lclavicle 1.82882e-014 -3.18055e-014
lhumerus 11.2245 6.11152 -3.78759
lradius 25.5943
lwrist 14.9479
lhand 36.1428 36.7794
lfingers 7.12502
lthumb 59.1282 411.443
rfemur -33.919 -28.8702 8.24321
rtibia 50.7805
rfoot -12.4391 -15.4298
rtoes -5.88732
lfemur -30.6907 25.1659 -29.486
ltibia 53.4997
lfoot -26.0236 12.3387
ltoes 8.03268
864
root 5.51453 14.4538 8.4733 -358.074 -0.628918 0.579557
lowerback 7.40714 6.89567 9.10415
upperback -4.64507 10.6016 4.17809
thorax -8.29242 4.77275 -2.00877
lowerneck -17.77 -2.40836 -3.0336
upperneck 24.626 -2.27986 -0.641846
head 10.9273 -1.38404 -0.0486345
rclavicle 4.33351e-014 1.74931e-014
rhumerus 28.6453 69.0722 -47.4081
rradius 94.7873
rwrist -13.6314
rhand -58.0316 39.5782
rfingers 7.12502
rthumb -30.276 12.0413
lclavicle 4.33351e-014 1.74931e-014
lhumerus 11.1704 6.45912 -3.69136
lradius 25.5082
lwrist 14.7111
lhand 35.9747 36.8193
lfingers 7.12502
lthumb 58.983 411.625
rfemur -33.9071 -29.2261 8.0784
rtibia 51.1755
rfoot -16.1302 -13.5347
rtoes -0.696871
lfemur -30.7469 25.0884 -29.8824
ltibia 53.5397
lfoot -26.1699 12.4493
ltoes 7.69494
865
root 5.57131 14.4245 8.46844 -358.09 -0.539408 0.554802
lowerback 7.42687 6.93765 9.07196
upperback -4.66378 10.6601 4.18559
thorax -8.32665 4.80123 -1.9948
lowerneck -17.7834 -2.39029 -3.01132
upperneck 24.6772 -2.28527 -0.548813
head 10.9495 -1.37258 -0.0199689
rclavicle -4.37326e-014 -4.77083e-015
rhumerus 28.3198 69.1137 -47.8137
rradius 94.6692
rwrist -13.7158
rhand -57.9651 39.6508
rfingers 7.12502
rthumb -30.2126 12.1023
lclavicle -4.37326e-014 -4.77083e-015
lhumerus 11.1645 6.62711 -3.66504
lradius 25.4465
lwrist 14.5789
lhand 35.8266 36.8644
lfingers 7.12502
lthumb 58.855 411.793
rfemur -34.3676 -29.5954 8.09987
rtibia 52.6466
rfoot -19.3039 -12.441
rtoes 3.11632
lfemur -30.8701 24.9858 -30.1229
ltibia 53.7346
lfoot -26.4306 12.4443
ltoes 7.45434
866
root 5.62745 14.4016 8.46425 -358.084 -0.442038 0.767846
lowerback 7.38165 6.9592 8.79929
upperback -4.66839 10.6496 4.11905
thorax -8.33779 4.81023 -1.91652
lowerneck -17.8161 -2.35971 -2.98746
upperneck 24.7642 -2.2783 -0.435613
head 10.989 -1.35292 0.0171217
rclavicle 7.15625e-015 -5.08889e-014
rhumerus 28.1473 69.1819 -48.1449
rradius 94.5644
rwrist -13.7753
rhand -57.8862 39.3623
rfingers 7.12502
rthumb -30.1373 11.8
lclavicle 7.15625e-015 -5.08889e-014
lhumerus 11.1313 7.10302 -3.58764
lradius 25.332
lwrist 14.1636
lhand 35.4932 36.917
lfingers 7.12502
lthumb 58.566 412.119
rfemur -35.0406 -29.9715 7.92016
rtibia 54.5265
rfoot -21.0351 -12.2664
rtoes 8.80753
lfemur -30.9935 24.9098 -30.636
ltibia 53.9647
lfoot -26.8166 12.3956
ltoes 7.92963
867
root 5.68301 14.3714 8.45805 -358.116 -0.329713 0.905164
lowerback 7.42223 6.98222 8.66176
upperback -4.67326 10.6657 4.04535
thorax -8.37325 4.82182 -1.92984
lowerneck -17.808 -2.35924 -3.03944
upperneck 24.7289 -2.33626 -0.169513
head 10.9788 -1.35033 0.11405
rclavicle -9.02482e-014 -3.81667e-014
rhumerus 27.9704 69.2094 -48.4671
rradius 94.4168
rwrist -13.8437
rhand -57.7832 39.0052
rfingers 7.12502
rthumb -30.039 11.425
lclavicle -9.02482e-014 -3.81667e-014
lhumerus 11.2162 7.95688 -3.32853
lradius 25.166
lwrist 13.1962
lhand 35.3621 36.9338
lfingers 7.12502
lthumb 58.4521 412.242
rfemur -35.4598 -30.3828 7.83504
rtibia 56.137
rfoot -21.18 -13.8191
rtoes 9.3593
lfemur -31.1196 24.8041 -31.0551
ltibia 54.2226
lfoot -26.9572 12.5427
ltoes 7.36726
868
root 5.7395 14.3482 8.45296 -358.144 -0.242684 1.09022
lowerback 7.45244 7.00954 8.40792
upperback -4.69874 10.6775 3.9846
thorax -8.44814 4.8365 -1.86971
lowerneck -17.7193 -2.34725 -3.0031
upperneck 24.721 -2.37025 -0.0359905
head 10.9599 -1.34531 0.152466
rclavicle -8.46823e-014 -3.49861e-014
rhumerus 27.8087 69.2921 -48.7136
rradius 94.2848
rwrist -13.8608
rhand -57.8214 39.2522
rfingers 7.12502
rthumb -30.0755 11.6786
lclavicle -8.46823e-014 -3.49861e-014
lhumerus 11.286 8.83452 -3.02482
lradius 24.9893
lwrist 12.128
lhand 35.0756 36.875
lfingers 7.12502
lthumb 58.2031 412.413
rfemur -35.7947 -30.806 7.73043
rtibia 57.4666
rfoot -20.6799 -15.8021
rtoes 6.61283
lfemur -31.1873 24.7714 -31.5406
ltibia 54.3774
lfoot -27.1451 12.6367
ltoes 7.34298
869
root 5.7992 14.3374 8.44639 -358.207 -0.150555 1.12073
lowerback 7.51915 7.03625 8.3764
upperback -4.70285 10.715 3.94048
thorax -8.4849 4.85281 -1.91298
lowerneck -17.7648 -2.3418 -2.96732
upperneck 24.933 -2.38984 0.0336652
head 11.0485 -1.34198 0.167363
rclavicle 1.19271e-014 -2.70347e-014
rhumerus 27.5982 69.3139 -49.0703
rradius 94.1654
rwrist -13.8464
rhand -57.7024 38.831
rfingers 7.12502
rthumb -29.9619 11.2368
lclavicle 1.19271e-014 -2.70347e-014
lhumerus 11.2687 8.88774 -3.17827
lradius 24.9961
lwrist 12.0936
lhand 34.6161 36.9886
lfingers 7.12502
lthumb 57.8022 412.886
rfemur -35.9771 -31.4328 7.86532
rtibia 58.7089
rfoot -21.115 -16.8202
rtoes 7.90722
lfemur -31.177 24.829 -31.8444
ltibia 54.4533
lfoot -27.312 12.7086
ltoes 7.02569
870
root 5.85937 14.3292 8.44204 -358.256 -0.065028 1.05454
lowerback 7.53255 7.03769 8.38965
upperback -4.70451 10.7239 3.98016
thorax -8.49995 4.85687 -1.88191
lowerneck -17.77 -2.30192 -2.87523
upperneck 25.0122 -2.35173 0.00320668
head 11.0765 -1.31955 0.146106
rclavicle 3.18055e-015 5.08889e-014
rhumerus 27.6124 69.4268 -49.1108
rradius 94.1278
rwrist -13.8758
rhand -57.5434 38.6044
rfingers 7.12502
rthumb -29.8102 10.983
lclavicle 3.18055e-015 5.08889e-014
lhumerus 11.0711 8.49747 -3.53085
lradius 25.0802
lwrist 12.4625
lhand 34.1542 37.0049
lfingers 7.12502
lthumb 57.398 413.255
rfemur -36.0809 -32.1555 8.16841
rtibia 59.9219
rfoot -22.0569 -17.4352
rtoes 11.5814
lfemur -31.1215 24.8359 -32.0369
ltibia 54.4439
lfoot -27.5041 12.7496
ltoes 6.58318
871
root 5.92263 14.3287 8.43795 -358.345 0.0877678 0.833046
lowerback 7.55812 7.03052 8.66104
upperback -4.69928 10.7515 4.04497
thorax -8.4747 4.85714 -1.96052
lowerneck -17.8391 -2.28349 -2.85712
upperneck 25.212 -2.32091 -0.019385
head 11.1641 -1.30653 0.137735
rclavicle -5.64548e-014 -1.11319e-014
rhumerus 27.5827 69.5095 -49.2058
rradius 94.0121
rwrist -13.8012
rhand -58.1714 39.9048
rfingers 7.12502
rthumb -30.4093 12.3924
lclavicle -5.64548e-014 -1.11319e-014
lhumerus 10.98 8.13403 -3.7429
lradius 25.0709
lwrist 12.6919
lhand 33.7325 37.023
lfingers 7.12502
lthumb 57.0277 413.586
rfemur -36.1104 -32.8538 8.58712
rtibia 61.1482
rfoot -22.7085 -18.1027
rtoes 12.6768
lfemur -30.9554 24.8207 -32.0291
ltibia 54.335
lfoot -27.6454 12.735
ltoes 6.54886
872
root 5.98586 14.3353 8.434 -358.382 0.19799 0.605703
lowerback 7.53534 7.05457 8.87847
upperback -4.71355 10.8123 4.12186
thorax -8.45177 4.87718 -1.99686
lowerneck -17.935 -2.27838 -2.82462
upperneck 25.4368 -2.31128 -0.0462699
head 11.2667 -1.30225 0.121791
rclavicle -2.70347e-014 1.90833e-014
rhumerus 27.558 69.5784 -49.2047
rradius 94.0018
rwrist -13.821
rhand -58.1163 39.6174
rfingers 7.12502
rthumb -30.3568 12.0954
lclavicle -2.70347e-014 1.90833e-014
lhumerus 10.8158 7.21841 -4.23117
lradius 25.2001
lwrist 13.5054
lhand 33.3627 36.9398
lfingers 7.12502
lthumb 56.7021 413.771
rfemur -36.1643 -33.4944 9.06132
rtibia 62.3782
rfoot -23.0087 -18.4869
rtoes 13.8663
lfemur -30.7944 24.7569 -32.0285
ltibia 54.1366
lfoot -27.7599 12.7069
ltoes 6.60487
873
root 6.04869 14.3482 8.43073 -358.468 0.373501 0.343264
lowerback 7.56688 7.10482 9.10565
upperback -4.69401 10.91 4.17079
thorax -8.41224 4.915 -2.07601
lowerneck -18.2555 -2.32802 -2.6781
upperneck 25.715 -2.39933 -0.10499
head 11.4336 -1.33484 0.0572256
rclavicle 1.31198e-014 1.27222e-014
rhumerus 27.3708 69.4434 -49.3645
rradius 93.9682
rwrist -13.8155
rhand -57.9991 39.4137
rfingers 7.12502
rthumb -30.245 11.871
lclavicle 1.31198e-014 1.27222e-014
lhumerus 10.9146 6.85462 -4.40526
lradius 25.2007
lwrist 13.7399
lhand 33.1092 36.7377
lfingers 7.12502
lthumb 56.4784 413.75
rfemur -36.055 -34.1513 9.53289
rtibia 63.6407
rfoot -23.2346 -18.5002
rtoes 15.0306
lfemur -30.5244 24.7099 -31.9553
ltibia 53.8654
lfoot -27.9462 12.4778
ltoes 7.18565
874
root 6.11499 14.3651 8.42581 -358.497 0.55582 0.0871722
lowerback 7.54018 7.13262 9.38747
upperback -4.70777 10.9791 4.21691
thorax -8.36778 4.93553 -2.1765
lowerneck -18.3738 -2.35645 -2.59646
upperneck 25.8633 -2.45713 -0.118686
head 11.5128 -1.35416 0.0274427
rclavicle 3.57812e-015 -4.29375e-014
rhumerus 27.2329 69.3964 -49.4468
rradius 93.9526
rwrist -13.7745
rhand -57.9765 39.3621
rfingers 7.12502
rthumb -30.2234 11.8156
lclavicle 3.57812e-015 -4.29375e-014
lhumerus 10.9179 6.38575 -4.63764
lradius 25.2577
lwrist 14.0695
lhand 32.9514 36.8265
lfingers 7.12502
lthumb 56.339 413.95
rfemur -36.0068 -34.5771 10.0478
rtibia 64.9964
rfoot -23.3013 -18.5139
rtoes 16.389
lfemur -30.3051 24.5475 -31.9423
ltibia 53.5452
lfoot -27.8037 12.6629
ltoes 6.4984
